<svg width="146" height="82" viewBox="0 0 146 82" fill="none" xmlns="http://www.w3.org/2000/svg">
<rect x="38.0182" y="1.5" width="7.82782" height="5.58788" rx="2.79394" fill="white" stroke="black"/>
<rect x="6.0174" y="16.3227" width="19.9661" height="5.58788" rx="2.79394" fill="white" stroke="black"/>
<rect x="0.5" y="30.5965" width="8.93129" height="5.58788" rx="2.79394" fill="white" stroke="black"/>
<rect x="4.91391" y="44.8702" width="12.7935" height="5.58788" rx="2.79394" fill="white" stroke="black"/>
<rect x="16.5004" y="59.6929" width="11.69" height="5.58788" rx="2.79394" fill="white" stroke="black"/>
<rect x="14.2935" y="73.9666" width="33.2078" height="5.58788" rx="2.79394" fill="white" stroke="black"/>
<path d="M126.517 1H55.6183C51.7562 0.999996 52.0321 8.13687 55.6183 8.13687C59.2046 8.13686 69.1359 7.86237 72.7222 7.86237C76.3085 7.86237 76.3085 14.4502 72.7222 14.4502H37.9627C32.7212 14.4502 32.7212 22.6851 37.9627 22.6851H53.9631C57.8253 22.6851 58.377 28.9985 53.9631 28.9985H16.8739C12.031 28.9985 12.031 36.6843 16.8739 36.6843H45.9629C50.6527 36.6843 50.9285 43.8212 45.9629 43.8212H24.4451C19.4795 43.8212 19.7553 51.507 24.4451 51.507H53.4114C58.6529 51.507 58.6529 58.0949 53.4114 58.0949H38.2386C32.7212 58.0949 32.1694 66.3298 38.2386 66.3298H72.1705C75.7568 66.3298 75.7568 72.6432 72.1705 72.6432H55.6183C50.9285 72.6432 51.2044 80.6035 55.6183 80.878C60.0322 81.1525 118.517 80.878 126.517 80.878C134.517 80.878 144.724 69.8982 144.724 64.6828C144.724 59.4674 145 26.528 145 19.3912C145 12.2543 135.896 1 126.517 1Z" fill="#00ADB5" stroke="black"/>
<ellipse cx="97.106" cy="41.0762" rx="26.4834" ry="26.3515" fill="black"/>
<path d="M78.6489 31.9585L90.1152 41.7378L93.555 21.2013C85.826 23.3226 82.7264 25.8568 78.6489 31.9585Z" fill="white" stroke="black"/>
<path d="M79.9851 51.6488L94.2298 46.6578L78.0756 33.4254C76.0574 41.1463 76.7132 45.0843 79.9851 51.6488Z" fill="white" stroke="black"/>
<path d="M97.9217 60.6131L100.7 45.8429L81.106 53.1469C86.8168 58.7464 90.5723 60.1504 97.9217 60.6131Z" fill="white" stroke="black"/>
<path d="M114.686 49.3982L103.219 39.6189L99.7796 60.1554C107.509 58.0341 110.608 55.4999 114.686 49.3982Z" fill="white" stroke="black"/>
<path d="M113.123 29.8397L98.8787 34.8306L115.033 48.063C117.051 40.3422 116.395 36.4041 113.123 29.8397Z" fill="white" stroke="black"/>
<path d="M95.1344 21.2013L92.356 35.9716L111.95 28.6675C106.239 23.068 102.484 21.6641 95.1344 21.2013Z" fill="white" stroke="black"/>
</svg>
