<svg width="540" height="127" viewBox="0 0 540 127" fill="none" xmlns="http://www.w3.org/2000/svg">
<rect x="38.0182" y="16.5" width="7.82782" height="5.58788" rx="2.79394" fill="white" stroke="black"/>
<rect x="6.0174" y="31.3227" width="19.9661" height="5.58788" rx="2.79394" fill="white" stroke="black"/>
<rect x="0.5" y="45.5965" width="8.93129" height="5.58788" rx="2.79394" fill="white" stroke="black"/>
<rect x="4.91391" y="59.8702" width="12.7935" height="5.58788" rx="2.79394" fill="white" stroke="black"/>
<rect x="16.5004" y="74.6929" width="11.69" height="5.58788" rx="2.79394" fill="white" stroke="black"/>
<rect x="14.2935" y="88.9666" width="33.2078" height="5.58788" rx="2.79394" fill="white" stroke="black"/>
<path d="M126.517 16H55.6183C51.7562 16 52.0321 23.1369 55.6183 23.1369C59.2046 23.1369 69.1359 22.8624 72.7222 22.8624C76.3085 22.8624 76.3085 29.4502 72.7222 29.4502H37.9627C32.7212 29.4502 32.7212 37.6851 37.9627 37.6851H53.9631C57.8253 37.6851 58.377 43.9985 53.9631 43.9985H16.8739C12.031 43.9985 12.031 51.6843 16.8739 51.6843H45.9629C50.6527 51.6843 50.9285 58.8212 45.9629 58.8212H24.4451C19.4795 58.8212 19.7553 66.507 24.4451 66.507H53.4114C58.6529 66.507 58.6529 73.0949 53.4114 73.0949H38.2386C32.7212 73.0949 32.1694 81.3298 38.2386 81.3298H72.1705C75.7568 81.3298 75.7568 87.6432 72.1705 87.6432H55.6183C50.9285 87.6432 51.2044 95.6035 55.6183 95.878C60.0322 96.1525 118.517 95.878 126.517 95.878C134.517 95.878 144.724 84.8982 144.724 79.6828C144.724 74.4674 145 41.528 145 34.3912C145 27.2543 135.896 16 126.517 16Z" fill="#00ADB5" stroke="black"/>
<ellipse cx="97.106" cy="56.0762" rx="26.4834" ry="26.3515" fill="black"/>
<path d="M78.6489 46.9585L90.1152 56.7378L93.555 36.2013C85.826 38.3226 82.7264 40.8568 78.6489 46.9585Z" fill="white" stroke="black"/>
<path d="M79.9851 66.6488L94.2298 61.6578L78.0756 48.4254C76.0574 56.1463 76.7132 60.0843 79.9851 66.6488Z" fill="white" stroke="black"/>
<path d="M97.9217 75.6131L100.7 60.8429L81.106 68.1469C86.8168 73.7464 90.5723 75.1504 97.9217 75.6131Z" fill="white" stroke="black"/>
<path d="M114.686 64.3982L103.219 54.6189L99.7796 75.1554C107.509 73.0341 110.608 70.4999 114.686 64.3982Z" fill="white" stroke="black"/>
<path d="M113.123 44.8397L98.8787 49.8306L115.033 63.063C117.051 55.3422 116.395 51.4041 113.123 44.8397Z" fill="white" stroke="black"/>
<path d="M95.1344 36.2013L92.356 50.9716L111.95 43.6675C106.239 38.068 102.484 36.6641 95.1344 36.2013Z" fill="white" stroke="black"/>
<mask id="path-15-outside-1_4_55" maskUnits="userSpaceOnUse" x="161" y="3" width="370" height="96" fill="black">
<rect fill="white" x="161" y="3" width="370" height="96"/>
<path d="M202.9 37.95H190.48V24.99C190.48 23.37 190.21 22.335 189.67 21.885C189.22 21.345 188.185 21.075 186.565 21.075H179.68C178.06 21.075 176.98 21.345 176.44 21.885C175.9 22.335 175.63 23.37 175.63 24.99V82.635C175.63 84.255 175.9 85.335 176.44 85.875C176.98 86.325 178.06 86.55 179.68 86.55H186.565C188.185 86.55 189.22 86.325 189.67 85.875C190.21 85.335 190.48 84.255 190.48 82.635V69.81H202.9V84.12C202.9 92.13 198.67 96.135 190.21 96.135H175.9C167.53 96.135 163.345 92.13 163.345 84.12V23.37C163.345 15.45 167.53 11.49 175.9 11.49H190.21C198.67 11.49 202.9 15.45 202.9 23.37V37.95ZM213.559 17.565V5.55H226.249V17.565H213.559ZM225.979 96H213.829V30.12H225.979V96ZM258.343 30.12H263.068C271.258 30.12 275.353 34.125 275.353 42.135V96H263.203V43.89C263.203 42.27 262.933 41.235 262.393 40.785C261.853 40.245 260.773 39.975 259.153 39.975H254.428C252.808 39.975 251.638 40.335 250.918 41.055C250.288 41.775 249.973 42.99 249.973 44.7V96H237.823V30.12H249.973V35.385C251.143 31.875 253.933 30.12 258.343 30.12ZM299.414 30.12H312.644C321.104 30.12 325.334 34.125 325.334 42.135V66.84H298.739V82.5C298.739 84.03 299.009 85.065 299.549 85.605C300.089 86.145 301.169 86.415 302.789 86.415H308.999C310.619 86.415 311.699 86.145 312.239 85.605C312.779 85.065 313.049 83.985 313.049 82.365V76.965H324.929V84.12C324.929 92.04 320.744 96 312.374 96H299.414C291.044 96 286.859 92.04 286.859 84.12V42.135C286.859 34.125 291.044 30.12 299.414 30.12ZM298.739 57.93H313.319V43.62C313.319 42.09 313.049 41.055 312.509 40.515C312.059 39.975 311.024 39.705 309.404 39.705H302.789C301.169 39.705 300.089 39.975 299.549 40.515C299.009 41.055 298.739 42.09 298.739 43.62V57.93ZM381.677 30.12H386.402C394.502 30.12 398.552 34.125 398.552 42.135V96H386.402V43.89C386.402 42.27 386.132 41.235 385.592 40.785C385.142 40.245 384.107 39.975 382.487 39.975H377.627C374.747 39.975 373.307 41.55 373.307 44.7V96H361.157V43.89C361.157 42.27 360.887 41.235 360.347 40.785C359.807 40.245 358.727 39.975 357.107 39.975H352.382C350.762 39.975 349.592 40.335 348.872 41.055C348.242 41.775 347.927 42.99 347.927 44.7V96H335.777V30.12H347.927V35.385C349.097 31.875 351.887 30.12 356.297 30.12H361.022C366.782 30.12 370.517 32.145 372.227 36.195C373.307 32.145 376.457 30.12 381.677 30.12ZM421.482 30.12H435.927C444.297 30.12 448.482 34.125 448.482 42.135V84.12C448.482 92.04 444.297 96 435.927 96H421.482C413.202 96 409.062 92.04 409.062 84.12V42.135C409.062 34.125 413.202 30.12 421.482 30.12ZM436.467 82.365V43.755C436.467 42.135 436.197 41.055 435.657 40.515C435.117 39.975 434.037 39.705 432.417 39.705H424.992C423.372 39.705 422.292 39.975 421.752 40.515C421.302 41.055 421.077 42.135 421.077 43.755V82.365C421.077 83.985 421.302 85.065 421.752 85.605C422.292 86.145 423.372 86.415 424.992 86.415H432.417C434.037 86.415 435.117 86.145 435.657 85.605C436.197 85.065 436.467 83.985 436.467 82.365ZM482.518 29.985H485.218V40.515H480.358C474.688 40.515 471.853 43.845 471.853 50.505V96H459.703V30.12H471.853V38.22C472.573 35.88 473.833 33.945 475.633 32.415C477.523 30.795 479.818 29.985 482.518 29.985ZM516.441 30.12H528.591V96H516.441V90.735C515.271 94.245 512.481 96 508.071 96H503.211C495.111 96 491.061 92.04 491.061 84.12V42.135C491.061 34.125 495.111 30.12 503.211 30.12H508.071C512.481 30.12 515.271 31.875 516.441 35.385V30.12ZM507.261 86.145H511.986C513.606 86.145 514.731 85.785 515.361 85.065C516.081 84.345 516.441 83.13 516.441 81.42V44.7C516.441 42.99 516.081 41.775 515.361 41.055C514.731 40.335 513.606 39.975 511.986 39.975H507.261C505.641 39.975 504.561 40.245 504.021 40.785C503.481 41.235 503.211 42.27 503.211 43.89V82.23C503.211 83.85 503.481 84.93 504.021 85.47C504.561 85.92 505.641 86.145 507.261 86.145Z"/>
</mask>
<path d="M202.9 37.95H190.48V24.99C190.48 23.37 190.21 22.335 189.67 21.885C189.22 21.345 188.185 21.075 186.565 21.075H179.68C178.06 21.075 176.98 21.345 176.44 21.885C175.9 22.335 175.63 23.37 175.63 24.99V82.635C175.63 84.255 175.9 85.335 176.44 85.875C176.98 86.325 178.06 86.55 179.68 86.55H186.565C188.185 86.55 189.22 86.325 189.67 85.875C190.21 85.335 190.48 84.255 190.48 82.635V69.81H202.9V84.12C202.9 92.13 198.67 96.135 190.21 96.135H175.9C167.53 96.135 163.345 92.13 163.345 84.12V23.37C163.345 15.45 167.53 11.49 175.9 11.49H190.21C198.67 11.49 202.9 15.45 202.9 23.37V37.95ZM213.559 17.565V5.55H226.249V17.565H213.559ZM225.979 96H213.829V30.12H225.979V96ZM258.343 30.12H263.068C271.258 30.12 275.353 34.125 275.353 42.135V96H263.203V43.89C263.203 42.27 262.933 41.235 262.393 40.785C261.853 40.245 260.773 39.975 259.153 39.975H254.428C252.808 39.975 251.638 40.335 250.918 41.055C250.288 41.775 249.973 42.99 249.973 44.7V96H237.823V30.12H249.973V35.385C251.143 31.875 253.933 30.12 258.343 30.12ZM299.414 30.12H312.644C321.104 30.12 325.334 34.125 325.334 42.135V66.84H298.739V82.5C298.739 84.03 299.009 85.065 299.549 85.605C300.089 86.145 301.169 86.415 302.789 86.415H308.999C310.619 86.415 311.699 86.145 312.239 85.605C312.779 85.065 313.049 83.985 313.049 82.365V76.965H324.929V84.12C324.929 92.04 320.744 96 312.374 96H299.414C291.044 96 286.859 92.04 286.859 84.12V42.135C286.859 34.125 291.044 30.12 299.414 30.12ZM298.739 57.93H313.319V43.62C313.319 42.09 313.049 41.055 312.509 40.515C312.059 39.975 311.024 39.705 309.404 39.705H302.789C301.169 39.705 300.089 39.975 299.549 40.515C299.009 41.055 298.739 42.09 298.739 43.62V57.93ZM381.677 30.12H386.402C394.502 30.12 398.552 34.125 398.552 42.135V96H386.402V43.89C386.402 42.27 386.132 41.235 385.592 40.785C385.142 40.245 384.107 39.975 382.487 39.975H377.627C374.747 39.975 373.307 41.55 373.307 44.7V96H361.157V43.89C361.157 42.27 360.887 41.235 360.347 40.785C359.807 40.245 358.727 39.975 357.107 39.975H352.382C350.762 39.975 349.592 40.335 348.872 41.055C348.242 41.775 347.927 42.99 347.927 44.7V96H335.777V30.12H347.927V35.385C349.097 31.875 351.887 30.12 356.297 30.12H361.022C366.782 30.12 370.517 32.145 372.227 36.195C373.307 32.145 376.457 30.12 381.677 30.12ZM421.482 30.12H435.927C444.297 30.12 448.482 34.125 448.482 42.135V84.12C448.482 92.04 444.297 96 435.927 96H421.482C413.202 96 409.062 92.04 409.062 84.12V42.135C409.062 34.125 413.202 30.12 421.482 30.12ZM436.467 82.365V43.755C436.467 42.135 436.197 41.055 435.657 40.515C435.117 39.975 434.037 39.705 432.417 39.705H424.992C423.372 39.705 422.292 39.975 421.752 40.515C421.302 41.055 421.077 42.135 421.077 43.755V82.365C421.077 83.985 421.302 85.065 421.752 85.605C422.292 86.145 423.372 86.415 424.992 86.415H432.417C434.037 86.415 435.117 86.145 435.657 85.605C436.197 85.065 436.467 83.985 436.467 82.365ZM482.518 29.985H485.218V40.515H480.358C474.688 40.515 471.853 43.845 471.853 50.505V96H459.703V30.12H471.853V38.22C472.573 35.88 473.833 33.945 475.633 32.415C477.523 30.795 479.818 29.985 482.518 29.985ZM516.441 30.12H528.591V96H516.441V90.735C515.271 94.245 512.481 96 508.071 96H503.211C495.111 96 491.061 92.04 491.061 84.12V42.135C491.061 34.125 495.111 30.12 503.211 30.12H508.071C512.481 30.12 515.271 31.875 516.441 35.385V30.12ZM507.261 86.145H511.986C513.606 86.145 514.731 85.785 515.361 85.065C516.081 84.345 516.441 83.13 516.441 81.42V44.7C516.441 42.99 516.081 41.775 515.361 41.055C514.731 40.335 513.606 39.975 511.986 39.975H507.261C505.641 39.975 504.561 40.245 504.021 40.785C503.481 41.235 503.211 42.27 503.211 43.89V82.23C503.211 83.85 503.481 84.93 504.021 85.47C504.561 85.92 505.641 86.145 507.261 86.145Z" fill="white"/>
<path d="M202.9 37.95V39.95H204.9V37.95H202.9ZM190.48 37.95H188.48V39.95H190.48V37.95ZM189.67 21.885L188.134 23.1654L188.25 23.305L188.39 23.4214L189.67 21.885ZM176.44 21.885L177.72 23.4214L177.79 23.3634L177.854 23.2992L176.44 21.885ZM176.44 85.875L175.026 87.2892L175.09 87.3534L175.16 87.4114L176.44 85.875ZM189.67 85.875L188.256 84.4608L188.256 84.4608L189.67 85.875ZM190.48 69.81V67.81H188.48V69.81H190.48ZM202.9 69.81H204.9V67.81H202.9V69.81ZM202.9 35.95H190.48V39.95H202.9V35.95ZM192.48 37.95V24.99H188.48V37.95H192.48ZM192.48 24.99C192.48 24.0874 192.407 23.2375 192.213 22.4939C192.024 21.7706 191.669 20.9471 190.95 20.3486L188.39 23.4214C188.211 23.2728 188.261 23.1918 188.342 23.5036C188.418 23.795 188.48 24.2726 188.48 24.99H192.48ZM191.206 20.6046C190.608 19.8863 189.784 19.5309 189.061 19.3423C188.317 19.1483 187.468 19.075 186.565 19.075V23.075C187.282 23.075 187.76 23.1367 188.051 23.2127C188.363 23.2941 188.282 23.3437 188.134 23.1654L191.206 20.6046ZM186.565 19.075H179.68V23.075H186.565V19.075ZM179.68 19.075C178.773 19.075 177.923 19.1491 177.17 19.3372C176.429 19.5223 175.644 19.853 175.026 20.4708L177.854 23.2992C177.776 23.377 177.801 23.3027 178.14 23.2178C178.467 23.1359 178.967 23.075 179.68 23.075V19.075ZM175.16 20.3486C174.441 20.9471 174.086 21.7706 173.897 22.4939C173.703 23.2375 173.63 24.0874 173.63 24.99H177.63C177.63 24.2726 177.692 23.795 177.768 23.5036C177.849 23.1918 177.899 23.2728 177.72 23.4214L175.16 20.3486ZM173.63 24.99V82.635H177.63V24.99H173.63ZM173.63 82.635C173.63 83.5415 173.704 84.3925 173.892 85.1451C174.077 85.8856 174.408 86.6715 175.026 87.2892L177.854 84.4608C177.932 84.5385 177.858 84.5144 177.773 84.1749C177.691 83.8475 177.63 83.3485 177.63 82.635H173.63ZM175.16 87.4114C175.785 87.9328 176.551 88.1942 177.247 88.3392C177.968 88.4893 178.79 88.55 179.68 88.55V84.55C178.95 84.55 178.422 84.4982 178.063 84.4233C177.679 84.3433 177.635 84.2672 177.72 84.3386L175.16 87.4114ZM179.68 88.55H186.565V84.55H179.68V88.55ZM186.565 88.55C187.451 88.55 188.271 88.4899 188.981 88.3356C189.65 88.1901 190.462 87.9111 191.084 87.2892L188.256 84.4608C188.428 84.2889 188.497 84.3474 188.131 84.4269C187.806 84.4976 187.299 84.55 186.565 84.55V88.55ZM191.084 87.2892C191.702 86.6715 192.033 85.8856 192.218 85.1451C192.406 84.3925 192.48 83.5415 192.48 82.635H188.48C188.48 83.3485 188.419 83.8475 188.337 84.1749C188.252 84.5144 188.178 84.5385 188.256 84.4608L191.084 87.2892ZM192.48 82.635V69.81H188.48V82.635H192.48ZM190.48 71.81H202.9V67.81H190.48V71.81ZM200.9 69.81V84.12H204.9V69.81H200.9ZM200.9 84.12C200.9 87.7879 199.937 90.1788 198.352 91.6789C196.748 93.1985 194.158 94.135 190.21 94.135V98.135C194.722 98.135 198.477 97.069 201.103 94.5836C203.748 92.0787 204.9 88.462 204.9 84.12H200.9ZM190.21 94.135H175.9V98.135H190.21V94.135ZM175.9 94.135C172.002 94.135 169.449 93.201 167.867 91.6863C166.3 90.1873 165.345 87.7938 165.345 84.12H161.345C161.345 88.4562 162.482 92.0702 165.101 94.5762C167.703 97.0665 171.428 98.135 175.9 98.135V94.135ZM165.345 84.12V23.37H161.345V84.12H165.345ZM165.345 23.37C165.345 19.7474 166.297 17.3904 167.858 15.9127C169.441 14.4154 171.997 13.49 175.9 13.49V9.48999C171.433 9.48999 167.712 10.5446 165.109 13.0073C162.486 15.4896 161.345 19.0726 161.345 23.37H165.345ZM175.9 13.49H190.21V9.48999H175.9V13.49ZM190.21 13.49C194.163 13.49 196.756 14.4178 198.361 15.92C199.94 17.399 200.9 19.7533 200.9 23.37H204.9C204.9 19.0667 203.745 15.481 201.094 13C198.469 10.5421 194.717 9.48999 190.21 9.48999V13.49ZM200.9 23.37V37.95H204.9V23.37H200.9ZM213.559 17.565H211.559V19.565H213.559V17.565ZM213.559 5.55V3.55H211.559V5.55H213.559ZM226.249 5.55H228.249V3.55H226.249V5.55ZM226.249 17.565V19.565H228.249V17.565H226.249ZM225.979 96V98H227.979V96H225.979ZM213.829 96H211.829V98H213.829V96ZM213.829 30.12V28.12H211.829V30.12H213.829ZM225.979 30.12H227.979V28.12H225.979V30.12ZM215.559 17.565V5.55H211.559V17.565H215.559ZM213.559 7.55H226.249V3.55H213.559V7.55ZM224.249 5.55V17.565H228.249V5.55H224.249ZM226.249 15.565H213.559V19.565H226.249V15.565ZM225.979 94H213.829V98H225.979V94ZM215.829 96V30.12H211.829V96H215.829ZM213.829 32.12H225.979V28.12H213.829V32.12ZM223.979 30.12V96H227.979V30.12H223.979ZM275.353 96V98H277.353V96H275.353ZM263.203 96H261.203V98H263.203V96ZM262.393 40.785L260.979 42.1992L261.043 42.2634L261.112 42.3214L262.393 40.785ZM250.918 41.055L249.504 39.6408L249.457 39.6879L249.413 39.738L250.918 41.055ZM249.973 96V98H251.973V96H249.973ZM237.823 96H235.823V98H237.823V96ZM237.823 30.12V28.12H235.823V30.12H237.823ZM249.973 30.12H251.973V28.12H249.973V30.12ZM249.973 35.385H247.973L251.87 36.0175L249.973 35.385ZM258.343 32.12H263.068V28.12H258.343V32.12ZM263.068 32.12C266.866 32.12 269.344 33.0486 270.883 34.5536C272.414 36.0505 273.353 38.4497 273.353 42.135H277.353C277.353 37.8103 276.244 34.202 273.68 31.6939C271.124 29.1938 267.46 28.12 263.068 28.12V32.12ZM273.353 42.135V96H277.353V42.135H273.353ZM275.353 94H263.203V98H275.353V94ZM265.203 96V43.89H261.203V96H265.203ZM265.203 43.89C265.203 42.9874 265.13 42.1375 264.936 41.3939C264.747 40.6706 264.391 39.8472 263.673 39.2486L261.112 42.3214C260.934 42.1728 260.984 42.0919 261.065 42.4036C261.141 42.695 261.203 43.1726 261.203 43.89H265.203ZM263.807 39.3708C263.189 38.753 262.403 38.4223 261.663 38.2372C260.91 38.0491 260.059 37.975 259.153 37.975V41.975C259.866 41.975 260.365 42.0359 260.693 42.1178C261.032 42.2027 261.056 42.2769 260.979 42.1992L263.807 39.3708ZM259.153 37.975H254.428V41.975H259.153V37.975ZM254.428 37.975C252.58 37.975 250.769 38.3756 249.504 39.6408L252.332 42.4692C252.507 42.2944 253.036 41.975 254.428 41.975V37.975ZM249.413 39.738C248.294 41.017 247.973 42.8486 247.973 44.7H251.973C251.973 43.1314 252.282 42.533 252.423 42.372L249.413 39.738ZM247.973 44.7V96H251.973V44.7H247.973ZM249.973 94H237.823V98H249.973V94ZM239.823 96V30.12H235.823V96H239.823ZM237.823 32.12H249.973V28.12H237.823V32.12ZM247.973 30.12V35.385H251.973V30.12H247.973ZM251.87 36.0175C252.328 34.6445 253.053 33.7299 254.008 33.1292C254.993 32.5094 256.391 32.12 258.343 32.12V28.12C255.885 28.12 253.683 28.6081 251.878 29.7433C250.043 30.8976 248.788 32.6155 248.075 34.7525L251.87 36.0175ZM325.334 66.84V68.84H327.334V66.84H325.334ZM298.739 66.84V64.84H296.739V66.84H298.739ZM299.549 85.605L300.964 84.1908L300.964 84.1908L299.549 85.605ZM312.239 85.605L310.825 84.1908L310.825 84.1908L312.239 85.605ZM313.049 76.965V74.965H311.049V76.965H313.049ZM324.929 76.965H326.929V74.965H324.929V76.965ZM298.739 57.93H296.739V59.93H298.739V57.93ZM313.319 57.93V59.93H315.319V57.93H313.319ZM312.509 40.515L310.973 41.7954L311.031 41.8651L311.095 41.9292L312.509 40.515ZM299.549 40.515L300.964 41.9292L300.964 41.9292L299.549 40.515ZM299.414 32.12H312.644V28.12H299.414V32.12ZM312.644 32.12C316.593 32.12 319.182 33.0565 320.787 34.5761C322.371 36.0762 323.334 38.467 323.334 42.135H327.334C327.334 37.7929 326.183 34.1763 323.537 31.6714C320.912 29.186 317.156 28.12 312.644 28.12V32.12ZM323.334 42.135V66.84H327.334V42.135H323.334ZM325.334 64.84H298.739V68.84H325.334V64.84ZM296.739 66.84V82.5H300.739V66.84H296.739ZM296.739 82.5C296.739 84.099 296.987 85.8709 298.135 87.0192L300.964 84.1908C301.026 84.2533 300.957 84.2235 300.877 83.9189C300.799 83.6201 300.739 83.1611 300.739 82.5H296.739ZM298.135 87.0192C298.753 87.637 299.539 87.9677 300.279 88.1528C301.032 88.3409 301.883 88.415 302.789 88.415V84.415C302.076 84.415 301.577 84.3541 301.25 84.2722C300.91 84.1873 300.886 84.113 300.964 84.1908L298.135 87.0192ZM302.789 88.415H308.999V84.415H302.789V88.415ZM308.999 88.415C309.906 88.415 310.757 88.3409 311.51 88.1528C312.25 87.9677 313.036 87.637 313.654 87.0192L310.825 84.1908C310.903 84.113 310.879 84.1873 310.539 84.2722C310.212 84.3541 309.713 84.415 308.999 84.415V88.415ZM313.654 87.0192C314.271 86.4015 314.602 85.6156 314.787 84.8751C314.975 84.1225 315.049 83.2715 315.049 82.365H311.049C311.049 83.0785 310.989 83.5775 310.907 83.9049C310.822 84.2444 310.748 84.2685 310.825 84.1908L313.654 87.0192ZM315.049 82.365V76.965H311.049V82.365H315.049ZM313.049 78.965H324.929V74.965H313.049V78.965ZM322.929 76.965V84.12H326.929V76.965H322.929ZM322.929 84.12C322.929 87.7426 321.978 90.0996 320.416 91.5773C318.834 93.0746 316.278 94 312.374 94V98C316.841 98 320.563 96.9454 323.165 94.4827C325.789 92.0004 326.929 88.4174 326.929 84.12H322.929ZM312.374 94H299.414V98H312.374V94ZM299.414 94C295.511 94 292.955 93.0746 291.373 91.5773C289.811 90.0996 288.859 87.7426 288.859 84.12H284.859C284.859 88.4174 286 92.0004 288.624 94.4827C291.226 96.9454 294.948 98 299.414 98V94ZM288.859 84.12V42.135H284.859V84.12H288.859ZM288.859 42.135C288.859 38.4612 289.815 36.0677 291.381 34.5687C292.964 33.054 295.516 32.12 299.414 32.12V28.12C294.943 28.12 291.218 29.1885 288.615 31.6788C285.997 34.1848 284.859 37.7988 284.859 42.135H288.859ZM298.739 59.93H313.319V55.93H298.739V59.93ZM315.319 57.93V43.62H311.319V57.93H315.319ZM315.319 43.62C315.319 42.021 315.072 40.2491 313.924 39.1008L311.095 41.9292C311.033 41.8667 311.102 41.8965 311.182 42.2011C311.26 42.4999 311.319 42.9589 311.319 43.62H315.319ZM314.046 39.2346C313.447 38.5163 312.624 38.1609 311.901 37.9723C311.157 37.7783 310.307 37.705 309.404 37.705V41.705C310.122 41.705 310.599 41.7667 310.891 41.8427C311.203 41.9241 311.122 41.9737 310.973 41.7954L314.046 39.2346ZM309.404 37.705H302.789V41.705H309.404V37.705ZM302.789 37.705C301.883 37.705 301.032 37.7791 300.279 37.9672C299.539 38.1523 298.753 38.483 298.135 39.1008L300.964 41.9292C300.886 42.0069 300.91 41.9327 301.25 41.8478C301.577 41.7659 302.076 41.705 302.789 41.705V37.705ZM298.135 39.1008C296.987 40.2491 296.739 42.021 296.739 43.62H300.739C300.739 42.9589 300.799 42.4999 300.877 42.2011C300.957 41.8965 301.026 41.8667 300.964 41.9292L298.135 39.1008ZM296.739 43.62V57.93H300.739V43.62H296.739ZM398.552 96V98H400.552V96H398.552ZM386.402 96H384.402V98H386.402V96ZM385.592 40.785L384.055 42.0654L384.172 42.205L384.312 42.3214L385.592 40.785ZM373.307 96V98H375.307V96H373.307ZM361.157 96H359.157V98H361.157V96ZM360.347 40.785L358.933 42.1992L358.997 42.2634L359.067 42.3214L360.347 40.785ZM348.872 41.055L347.458 39.6408L347.411 39.6879L347.367 39.738L348.872 41.055ZM347.927 96V98H349.927V96H347.927ZM335.777 96H333.777V98H335.777V96ZM335.777 30.12V28.12H333.777V30.12H335.777ZM347.927 30.12H349.927V28.12H347.927V30.12ZM347.927 35.385H345.927L349.824 36.0175L347.927 35.385ZM372.227 36.195L370.384 36.9729L372.655 42.3511L374.159 36.7103L372.227 36.195ZM381.677 32.12H386.402V28.12H381.677V32.12ZM386.402 32.12C390.149 32.12 392.591 33.0458 394.108 34.5458C395.621 36.0418 396.552 38.444 396.552 42.135H400.552C400.552 37.816 399.458 34.2107 396.921 31.7017C394.388 29.1967 390.755 28.12 386.402 28.12V32.12ZM396.552 42.135V96H400.552V42.135H396.552ZM398.552 94H386.402V98H398.552V94ZM388.402 96V43.89H384.402V96H388.402ZM388.402 43.89C388.402 42.9874 388.329 42.1375 388.135 41.3939C387.946 40.6706 387.591 39.8471 386.872 39.2486L384.312 42.3214C384.133 42.1728 384.183 42.0919 384.264 42.4036C384.34 42.695 384.402 43.1726 384.402 43.89H388.402ZM387.128 39.5046C386.53 38.7863 385.706 38.4309 384.983 38.2423C384.239 38.0483 383.39 37.975 382.487 37.975V41.975C383.204 41.975 383.682 42.0367 383.973 42.1127C384.285 42.1941 384.204 42.2437 384.055 42.0654L387.128 39.5046ZM382.487 37.975H377.627V41.975H382.487V37.975ZM377.627 37.975C375.83 37.975 374.129 38.4746 372.911 39.8067C371.724 41.1049 371.307 42.8589 371.307 44.7H375.307C375.307 43.3911 375.61 42.7826 375.863 42.5058C376.085 42.2629 376.544 41.975 377.627 41.975V37.975ZM371.307 44.7V96H375.307V44.7H371.307ZM373.307 94H361.157V98H373.307V94ZM363.157 96V43.89H359.157V96H363.157ZM363.157 43.89C363.157 42.9874 363.084 42.1375 362.89 41.3939C362.701 40.6706 362.346 39.8472 361.627 39.2486L359.067 42.3214C358.888 42.1728 358.938 42.0919 359.019 42.4036C359.095 42.695 359.157 43.1726 359.157 43.89H363.157ZM361.761 39.3708C361.143 38.753 360.357 38.4223 359.617 38.2372C358.864 38.0491 358.013 37.975 357.107 37.975V41.975C357.82 41.975 358.319 42.0359 358.647 42.1178C358.986 42.2027 359.01 42.2769 358.933 42.1992L361.761 39.3708ZM357.107 37.975H352.382V41.975H357.107V37.975ZM352.382 37.975C350.534 37.975 348.723 38.3756 347.458 39.6408L350.286 42.4692C350.461 42.2944 350.99 41.975 352.382 41.975V37.975ZM347.367 39.738C346.248 41.017 345.927 42.8486 345.927 44.7H349.927C349.927 43.1314 350.236 42.533 350.377 42.372L347.367 39.738ZM345.927 44.7V96H349.927V44.7H345.927ZM347.927 94H335.777V98H347.927V94ZM337.777 96V30.12H333.777V96H337.777ZM335.777 32.12H347.927V28.12H335.777V32.12ZM345.927 30.12V35.385H349.927V30.12H345.927ZM349.824 36.0175C350.282 34.6445 351.007 33.7299 351.962 33.1292C352.947 32.5094 354.345 32.12 356.297 32.12V28.12C353.839 28.12 351.637 28.6081 349.832 29.7433C347.997 30.8976 346.742 32.6155 346.03 34.7525L349.824 36.0175ZM356.297 32.12H361.022V28.12H356.297V32.12ZM361.022 32.12C363.682 32.12 365.701 32.5895 367.19 33.397C368.644 34.1851 369.699 35.3504 370.384 36.9729L374.069 35.4171C373.044 32.9896 371.378 31.1174 369.096 29.8805C366.851 28.663 364.122 28.12 361.022 28.12V32.12ZM374.159 36.7103C374.588 35.1048 375.376 34.0314 376.481 33.3211C377.63 32.5826 379.305 32.12 381.677 32.12V28.12C378.829 28.12 376.319 28.6699 374.318 29.9564C372.273 31.2711 370.946 33.2352 370.294 35.6797L374.159 36.7103ZM435.657 40.515L434.243 41.9292L434.243 41.9292L435.657 40.515ZM421.752 40.515L420.338 39.1008L420.274 39.1649L420.215 39.2346L421.752 40.515ZM421.752 85.605L420.215 86.8854L420.274 86.9551L420.338 87.0192L421.752 85.605ZM435.657 85.605L437.071 87.0192L437.071 87.0192L435.657 85.605ZM421.482 32.12H435.927V28.12H421.482V32.12ZM435.927 32.12C439.825 32.12 442.378 33.054 443.96 34.5687C445.527 36.0677 446.482 38.4612 446.482 42.135H450.482C450.482 37.7988 449.345 34.1848 446.726 31.6788C444.124 29.1885 440.399 28.12 435.927 28.12V32.12ZM446.482 42.135V84.12H450.482V42.135H446.482ZM446.482 84.12C446.482 87.7426 445.53 90.0996 443.969 91.5773C442.386 93.0746 439.83 94 435.927 94V98C440.393 98 444.115 96.9454 446.718 94.4827C449.341 92.0004 450.482 88.4174 450.482 84.12H446.482ZM435.927 94H421.482V98H435.927V94ZM421.482 94C417.628 94 415.11 93.0771 413.549 91.5847C412.006 90.1082 411.062 87.7485 411.062 84.12H407.062C407.062 88.4115 408.188 91.9918 410.784 94.4753C413.364 96.9429 417.055 98 421.482 98V94ZM411.062 84.12V42.135H407.062V84.12H411.062ZM411.062 42.135C411.062 38.4554 412.009 36.0591 413.557 34.5612C415.118 33.0514 417.634 32.12 421.482 32.12V28.12C417.05 28.12 413.356 29.1911 410.776 31.6863C408.185 34.1934 407.062 37.8045 407.062 42.135H411.062ZM438.467 82.365V43.755H434.467V82.365H438.467ZM438.467 43.755C438.467 42.8485 438.393 41.9975 438.205 41.2449C438.02 40.5044 437.689 39.7185 437.071 39.1008L434.243 41.9292C434.165 41.8515 434.239 41.8756 434.324 42.2151C434.406 42.5425 434.467 43.0415 434.467 43.755H438.467ZM437.071 39.1008C436.453 38.483 435.667 38.1523 434.927 37.9672C434.174 37.7791 433.323 37.705 432.417 37.705V41.705C433.13 41.705 433.629 41.7659 433.957 41.8478C434.296 41.9327 434.32 42.0069 434.243 41.9292L437.071 39.1008ZM432.417 37.705H424.992V41.705H432.417V37.705ZM424.992 37.705C424.085 37.705 423.234 37.7791 422.482 37.9672C421.741 38.1523 420.955 38.483 420.338 39.1008L423.166 41.9292C423.088 42.0069 423.112 41.9327 423.452 41.8478C423.779 41.7659 424.278 41.705 424.992 41.705V37.705ZM420.215 39.2346C419.694 39.8602 419.433 40.6262 419.288 41.3221C419.138 42.0427 419.077 42.8653 419.077 43.755H423.077C423.077 43.0246 423.129 42.4973 423.204 42.1379C423.284 41.7538 423.36 41.7098 423.288 41.7954L420.215 39.2346ZM419.077 43.755V82.365H423.077V43.755H419.077ZM419.077 82.365C419.077 83.2547 419.138 84.0773 419.288 84.7979C419.433 85.4938 419.694 86.2598 420.215 86.8854L423.288 84.3246C423.36 84.4102 423.284 84.3662 423.204 83.9821C423.129 83.6227 423.077 83.0953 423.077 82.365H419.077ZM420.338 87.0192C420.955 87.637 421.741 87.9677 422.482 88.1528C423.234 88.3409 424.085 88.415 424.992 88.415V84.415C424.278 84.415 423.779 84.3541 423.452 84.2722C423.112 84.1873 423.088 84.113 423.166 84.1908L420.338 87.0192ZM424.992 88.415H432.417V84.415H424.992V88.415ZM432.417 88.415C433.323 88.415 434.174 88.3409 434.927 88.1528C435.667 87.9677 436.453 87.637 437.071 87.0192L434.243 84.1908C434.32 84.113 434.296 84.1873 433.957 84.2722C433.629 84.3541 433.13 84.415 432.417 84.415V88.415ZM437.071 87.0192C437.689 86.4015 438.02 85.6156 438.205 84.8751C438.393 84.1225 438.467 83.2715 438.467 82.365H434.467C434.467 83.0785 434.406 83.5775 434.324 83.9049C434.239 84.2444 434.165 84.2685 434.243 84.1908L437.071 87.0192ZM485.218 29.985H487.218V27.985H485.218V29.985ZM485.218 40.515V42.515H487.218V40.515H485.218ZM471.853 96V98H473.853V96H471.853ZM459.703 96H457.703V98H459.703V96ZM459.703 30.12V28.12H457.703V30.12H459.703ZM471.853 30.12H473.853V28.12H471.853V30.12ZM471.853 38.22H469.853L473.764 38.8082L471.853 38.22ZM475.633 32.415L476.928 33.9389L476.934 33.9335L475.633 32.415ZM482.518 31.985H485.218V27.985H482.518V31.985ZM483.218 29.985V40.515H487.218V29.985H483.218ZM485.218 38.515H480.358V42.515H485.218V38.515ZM480.358 38.515C477.123 38.515 474.36 39.4801 472.456 41.716C470.605 43.8903 469.853 46.9383 469.853 50.505H473.853C473.853 47.4117 474.518 45.4647 475.502 44.309C476.433 43.2149 477.923 42.515 480.358 42.515V38.515ZM469.853 50.505V96H473.853V50.505H469.853ZM471.853 94H459.703V98H471.853V94ZM461.703 96V30.12H457.703V96H461.703ZM459.703 32.12H471.853V28.12H459.703V32.12ZM469.853 30.12V38.22H473.853V30.12H469.853ZM473.764 38.8082C474.376 36.8185 475.429 35.2128 476.928 33.9389L474.337 30.8911C472.236 32.6772 470.769 34.9415 469.941 37.6318L473.764 38.8082ZM476.934 33.9335C478.43 32.6514 480.252 31.985 482.518 31.985V27.985C479.384 27.985 476.615 28.9386 474.331 30.8965L476.934 33.9335ZM516.441 30.12V28.12H514.441V30.12H516.441ZM528.591 30.12H530.591V28.12H528.591V30.12ZM528.591 96V98H530.591V96H528.591ZM516.441 96H514.441V98H516.441V96ZM516.441 90.735H518.441L514.543 90.1025L516.441 90.735ZM516.441 35.385L514.543 36.0175L518.441 35.385H516.441ZM515.361 85.065L513.946 83.6508L513.899 83.6979L513.856 83.748L515.361 85.065ZM515.361 41.055L513.856 42.372L513.899 42.4221L513.946 42.4692L515.361 41.055ZM504.021 40.785L505.301 42.3214L505.371 42.2634L505.435 42.1992L504.021 40.785ZM504.021 85.47L502.606 86.8842L502.671 86.9484L502.74 87.0064L504.021 85.47ZM516.441 32.12H528.591V28.12H516.441V32.12ZM526.591 30.12V96H530.591V30.12H526.591ZM528.591 94H516.441V98H528.591V94ZM518.441 96V90.735H514.441V96H518.441ZM514.543 90.1025C514.086 91.4755 513.361 92.3901 512.406 92.9908C511.42 93.6106 510.023 94 508.071 94V98C510.529 98 512.731 97.5119 514.536 96.3767C516.371 95.2224 517.626 93.5045 518.338 91.3675L514.543 90.1025ZM508.071 94H503.211V98H508.071V94ZM503.211 94C499.458 94 497.013 93.0825 495.496 91.6C493.988 90.1256 493.061 87.7602 493.061 84.12H489.061C489.061 88.3998 490.158 91.9744 492.7 94.46C495.234 96.9375 498.864 98 503.211 98V94ZM493.061 84.12V42.135H489.061V84.12H493.061ZM493.061 42.135C493.061 38.444 493.992 36.0418 495.504 34.5458C497.021 33.0458 499.463 32.12 503.211 32.12V28.12C498.858 28.12 495.225 29.1967 492.692 31.7017C490.155 34.2107 489.061 37.816 489.061 42.135H493.061ZM503.211 32.12H508.071V28.12H503.211V32.12ZM508.071 32.12C510.023 32.12 511.42 32.5094 512.406 33.1292C513.361 33.7299 514.086 34.6445 514.543 36.0175L518.338 34.7525C517.626 32.6155 516.371 30.8976 514.536 29.7433C512.731 28.6081 510.529 28.12 508.071 28.12V32.12ZM518.441 35.385V30.12H514.441V35.385H518.441ZM507.261 88.145H511.986V84.145H507.261V88.145ZM511.986 88.145C513.799 88.145 515.661 87.7589 516.866 86.382L513.856 83.748C513.8 83.8111 513.412 84.145 511.986 84.145V88.145ZM516.775 86.4792C518.056 85.1979 518.441 83.3208 518.441 81.42H514.441C514.441 82.9392 514.105 83.4921 513.946 83.6508L516.775 86.4792ZM518.441 81.42V44.7H514.441V81.42H518.441ZM518.441 44.7C518.441 42.7992 518.056 40.9221 516.775 39.6408L513.946 42.4692C514.105 42.6279 514.441 43.1808 514.441 44.7H518.441ZM516.866 39.738C515.661 38.3611 513.799 37.975 511.986 37.975V41.975C513.412 41.975 513.8 42.3089 513.856 42.372L516.866 39.738ZM511.986 37.975H507.261V41.975H511.986V37.975ZM507.261 37.975C506.354 37.975 505.503 38.0491 504.751 38.2372C504.01 38.4223 503.224 38.753 502.606 39.3708L505.435 42.1992C505.357 42.2769 505.381 42.2027 505.721 42.1178C506.048 42.0359 506.547 41.975 507.261 41.975V37.975ZM502.74 39.2486C502.022 39.8472 501.667 40.6706 501.478 41.3939C501.284 42.1375 501.211 42.9874 501.211 43.89H505.211C505.211 43.1726 505.272 42.695 505.348 42.4036C505.43 42.0919 505.479 42.1728 505.301 42.3214L502.74 39.2486ZM501.211 43.89V82.23H505.211V43.89H501.211ZM501.211 82.23C501.211 83.1365 501.285 83.9875 501.473 84.7401C501.658 85.4806 501.989 86.2665 502.606 86.8842L505.435 84.0558C505.513 84.1335 505.438 84.1094 505.353 83.7699C505.272 83.4425 505.211 82.9435 505.211 82.23H501.211ZM502.74 87.0064C503.366 87.5278 504.132 87.7892 504.828 87.9342C505.548 88.0843 506.371 88.145 507.261 88.145V84.145C506.53 84.145 506.003 84.0932 505.644 84.0183C505.259 83.9383 505.215 83.8622 505.301 83.9336L502.74 87.0064Z" fill="black" mask="url(#path-15-outside-1_4_55)"/>
</svg>
